<svg width="168" height="194" viewBox="0 0 168 194" fill="none" xmlns="http://www.w3.org/2000/svg">
<path d="M0 143H20.5V75C20.5 75 99.4953 139.217 102.5 145.5C108 157 101.5 174 85.5 173.5C60.5 172.719 59.5 147.5 59.5 147.5H39.5C41 177 61.4013 194 87.5 194C109.5 194 125.461 175.546 125.5 154C125.52 143.19 121 135.5 113.5 127.5C106 119.5 26.5 51 26.5 51H0V143Z" fill="#E4AFFF"/>
<path d="M167.5 51H147V119C147 119 68.0048 54.7826 65.0001 48.5C59.5001 37 66.0001 20 82.0001 20.5C107 21.2812 108 46.5 108 46.5H128C126.5 17 106.099 0 80.0001 0C58.0001 0 42.0392 18.4538 42.0001 40C41.9804 50.8102 46.5001 58.5 54.0001 66.5C61.5001 74.5 141 143 141 143H167.5V51Z" fill="#E4AFFF"/>
</svg>
